<svg width="512" height="512" xmlns="http://www.w3.org/2000/svg">
    <path style="fill:#c03319;stroke:#c03319;stroke-width:0;stroke-linecap:round;stroke-linejoin:round;paint-order:fill markers stroke" d="M51.605 15.578h408.536c19.96 0 36.028 16.068 36.028 36.027v408.028c0 19.96-16.069 36.028-36.028 36.028H51.605c-19.959 0-36.027-16.068-36.027-36.028V51.605c0-19.959 16.068-36.027 36.027-36.027z"/>
    <path style="font-style:italic;font-weight:850;font-size:596.651px;line-height:1.25;font-family:Freya_DEMO;-inkscape-font-specification:'Freya_DEMO weight=850 Italic';text-align:center;text-anchor:middle;fill:#fff;stroke-width:14.9163" d="M234.46 87.364q2.387-12.53 8.353-22.076 5.967-9.547 14.32-15.513 8.353-6.563 17.9-9.547 10.142-2.983 19.689-2.983 9.546 0 17.9 2.983 8.352 2.984 14.319 9.547 6.563 5.966 8.95 15.513 2.983 9.546.596 22.076l-17.303 97.85h-28.042l17.303-97.85q2.386-11.337-4.177-16.706-5.966-5.37-14.32-5.37-8.353 0-16.706 5.37-7.756 5.37-10.143 16.706l-23.27 131.86q-1.192 8.95 3.58 15.513 5.37 6.563 14.917 6.563 20.883 0 33.413 14.916 12.53 14.32 8.95 35.8l-23.27 131.262q-4.773 25.06-22.673 38.186-17.9 12.53-36.992 12.53-9.547 0-18.496-2.984-8.354-3.58-14.917-9.546-5.966-6.563-8.95-16.11-2.386-9.546 0-22.076l20.287-115.75h28.639l-20.286 115.75q-1.79 11.337 4.176 16.707 5.967 5.37 14.32 5.37 8.353 0 16.706-5.37t10.143-16.707l23.27-131.263q1.193-9.546-4.177-16.11-5.37-6.563-14.32-6.563-20.882 0-34.009-14.32-12.53-14.319-8.95-35.798z" aria-label="S"/>
</svg>
